<svg version="1.1" id="Layer_1" xmlns="http://www.w3.org/2000/svg" xmlns:xlink="http://www.w3.org/1999/xlink" x="0px" y="0px"
	 width="100%" viewBox="0 0 800 243" enable-background="new 0 0 800 243" xml:space="preserve">
<path fill="#FFFFFF" opacity="1.000000" stroke="none" 
	d="
M743.999695,96.000000 
	C743.999695,126.158203 744.302002,155.820999 743.851440,185.472351 
	C743.670410,197.388611 739.346497,208.370529 730.554260,216.792191 
	C722.342285,224.658035 712.140808,228.587967 700.754211,228.964615 
	C689.144409,229.348648 677.695129,229.249527 666.878479,223.553040 
	C654.196533,216.874176 647.900818,206.002487 645.107788,192.687042 
	C644.108032,187.920746 644.054077,182.897949 644.044434,177.991272 
	C643.965820,138.169449 643.756470,98.345016 644.149231,58.526917 
	C644.266724,46.614845 648.653503,35.629494 657.445740,27.207829 
	C665.657654,19.341978 675.859131,15.412038 687.245728,15.035405 
	C698.855530,14.651391 710.304810,14.750411 721.121521,20.446899 
	C733.803528,27.125710 741.077698,37.898788 742.680481,51.328503 
	C744.419128,65.897324 743.666138,80.763496 743.999695,96.000000 
M711.000000,116.500000 
	C710.666626,97.754250 710.348206,79.008217 709.990845,60.262920 
	C709.885498,54.733898 706.092834,48.285786 701.539368,47.097439 
	C695.048828,45.403568 688.505920,44.354481 682.724609,49.683514 
	C676.790405,55.153389 677.217896,62.606609 677.203125,69.260918 
	C677.118469,107.335564 677.666199,145.411621 678.000366,183.487198 
	C678.063416,190.671432 683.743408,197.557236 690.870239,198.083923 
	C704.450928,199.087601 708.436646,193.013077 709.855469,185.209442 
	C710.907104,179.425140 710.907043,173.407593 710.953918,167.490616 
	C711.085754,150.827988 711.000000,134.163666 711.000000,116.500000 
z"/>
<path fill="#FFFFFF" opacity="1.000000" stroke="none" 
	d="
M514.833496,17.000557 
	C518.766541,16.489246 517.983887,18.989531 517.987732,20.830084 
	C518.011353,32.160976 517.999695,43.491940 517.999695,54.822880 
	C517.999756,98.646957 518.377380,142.475723 517.831909,186.293015 
	C517.579407,206.575287 504.946014,225.906891 482.267090,228.967194 
	C466.768951,231.058517 451.400940,231.795883 437.558624,222.182388 
	C427.478333,215.181625 422.141602,205.350861 420.085327,193.613495 
	C419.241211,188.795151 419.050629,183.813049 419.044006,178.904785 
	C418.973633,126.915863 419.000366,74.926804 419.000366,22.937786 
	C419.000366,21.132940 419.000366,19.328096 419.000366,17.263237 
	C430.001648,17.263237 440.739044,17.263237 451.999634,17.263237 
	C451.999634,19.035746 451.999634,20.807745 451.999634,22.579742 
	C451.999634,73.402336 451.892761,124.225479 452.149933,175.046768 
	C452.178467,180.690720 453.323364,186.764511 455.661713,191.852554 
	C458.676819,198.413223 467.330811,200.853302 474.752533,198.759155 
	C481.426208,196.876083 485.983002,190.636902 485.988739,183.124191 
	C486.015198,148.464874 486.000366,113.805519 486.000366,79.146172 
	C486.000366,58.657986 486.000366,38.169800 486.000366,17.000429 
	C495.513611,17.000429 504.930817,17.000429 514.833496,17.000557 
z"/>
<path fill="#FFFFFF" opacity="1.000000" stroke="none" 
	d="
M400.999634,152.137451 
	C400.999634,163.119080 401.225494,173.621201 400.950623,184.110214 
	C400.443604,203.456451 390.099274,222.621750 369.225586,227.126938 
	C352.463776,230.744690 335.550385,231.513443 320.327240,221.023407 
	C310.411102,214.190338 305.150818,204.379745 303.088409,192.818573 
	C302.229736,188.005157 302.054352,183.020523 302.044586,178.112808 
	C301.965759,138.460632 301.672546,98.804390 302.135132,59.157436 
	C302.375580,38.547726 315.151245,19.005915 337.771759,16.027309 
	C353.266418,13.987015 368.632019,13.174896 382.468872,22.834610 
	C392.531555,29.859552 398.606628,39.615253 399.745819,51.423210 
	C400.896179,63.346809 399.999298,75.467918 399.999298,87.754852 
	C390.295441,87.754852 379.892731,87.754852 369.000366,87.754852 
	C369.000366,79.261406 369.013489,70.821510 368.996460,62.381672 
	C368.981232,54.823685 365.504517,48.755703 359.080872,46.703228 
	C352.657104,44.650723 344.474976,44.879593 339.692444,50.919209 
	C338.050903,52.992275 336.648926,55.593468 336.144775,58.151878 
	C335.326355,62.304848 335.054413,66.620781 335.044495,70.869072 
	C334.964508,105.189819 334.948273,139.511002 335.063446,173.831558 
	C335.078125,178.209579 335.447937,182.718964 336.549683,186.933121 
	C338.831665,195.661652 346.379059,199.598511 356.561615,197.990784 
	C363.548676,196.887589 368.942505,190.187592 368.984802,182.349182 
	C369.045776,171.055862 369.000366,159.761963 369.000366,148.001877 
	C379.092041,148.001877 388.867828,148.089539 398.640472,147.952225 
	C401.871735,147.906830 400.813934,150.047348 400.999634,152.137451 
z"/>
<path fill="#FFFFFF" opacity="1.000000" stroke="none" 
	d="
M558.000000,17.000410 
	C583.140869,17.000410 607.781799,17.000410 632.710876,17.000410 
	C632.710876,26.948185 632.710876,36.686836 632.710876,46.827168 
	C621.380859,46.827168 609.971130,46.827168 598.175781,46.827168 
	C598.175781,106.956398 598.175781,166.688919 598.175781,226.710052 
	C587.053040,226.710052 576.314697,226.710052 565.183167,226.710052 
	C565.183167,167.049500 565.183167,107.316978 565.183167,47.186176 
	C553.396057,47.186176 541.986328,47.186176 530.290771,47.186176 
	C530.290771,37.055275 530.290771,27.316578 530.290771,17.000410 
	C539.304810,17.000410 548.402405,17.000410 558.000000,17.000410 
z"/>
<path fill="#FA9B0C" opacity="1.000000" stroke="none" 
	d="
M12.213182,61.214844 
	C31.158918,42.260773 49.854801,23.556709 68.127022,5.276494 
	C89.594971,26.745947 110.847687,48.000160 131.696945,68.850883 
	C111.155792,89.389534 89.894363,110.648384 69.087708,131.452515 
	C48.433613,110.798286 27.089327,89.453865 5.140852,67.505249 
	C7.003539,65.856087 9.483434,63.660473 12.213182,61.214844 
M91.526527,55.973484 
	C84.051498,48.498981 76.576469,41.024483 69.561722,34.010227 
	C57.498512,46.084953 45.991970,57.602474 34.887062,68.717979 
	C46.203068,80.039650 57.810467,91.652863 68.959709,102.807693 
	C80.258133,91.533180 91.887299,79.928619 103.955849,67.885620 
	C100.193748,64.286613 96.110146,60.380039 91.526527,55.973484 
z"/>
<path fill="#952494" opacity="1.000000" stroke="none" 
	d="
M147.368896,211.631027 
	C140.978394,205.291092 134.837830,199.201172 129.057663,193.468674 
	C133.995819,188.629501 138.683319,184.035950 143.670547,179.148666 
	C153.325516,188.864471 163.831406,199.436569 173.983261,209.652390 
	C186.128250,197.512466 197.742691,185.902863 209.187805,174.462509 
	C197.977921,163.285568 186.450378,151.791901 174.679352,140.055481 
	C164.381226,150.382645 153.866440,160.927063 143.290756,171.532562 
	C138.281128,166.322769 133.811584,161.674637 129.785782,157.487991 
	C144.798569,142.494629 160.161957,127.151108 175.147476,112.184967 
	C195.653336,132.691284 216.920670,153.959091 237.855347,174.894241 
	C217.167007,195.584488 195.892395,216.861053 174.228256,238.527176 
	C165.657623,229.944717 156.638245,220.912888 147.368896,211.631027 
z"/>
<path fill="#0AB4F2" opacity="1.000000" stroke="none" 
	d="
M43.723179,164.723358 
	C40.194778,168.027206 36.916508,171.081070 33.944881,173.849289 
	C46.095455,185.972137 57.720184,197.570328 69.021614,208.845963 
	C80.246407,197.678589 91.884613,186.099915 103.963631,174.082672 
	C93.660355,163.805618 83.092049,153.264206 72.596573,142.795425 
	C77.395599,138.013397 81.980003,133.445236 86.149422,129.290588 
	C101.393044,144.540298 116.769325,159.922729 131.789124,174.948532 
	C111.202881,195.533615 89.926575,216.808746 69.027168,237.707001 
	C48.275612,216.953491 27.011490,195.687378 6.115390,174.789322 
	C20.943296,159.945877 36.301235,144.571838 51.456570,129.400635 
	C55.697361,133.595963 60.364151,138.212723 65.365784,143.160751 
	C58.336922,150.163376 51.155117,157.318375 43.723179,164.723358 
z"/>
<path fill="#73D003" opacity="1.000000" stroke="none" 
	d="
M191.011826,88.011627 
	C197.496780,81.548111 203.731674,75.334549 209.689850,69.396774 
	C197.793243,57.509117 186.200668,45.925278 174.491776,34.225197 
	C164.368286,44.394058 153.951904,54.857136 143.467072,65.388962 
	C138.598297,60.140980 134.136978,55.332176 130.036530,50.912338 
	C144.705750,36.270245 160.071564,20.932854 175.131287,5.900982 
	C195.836823,26.611263 217.094635,47.873951 238.172516,68.956657 
	C223.157578,83.892555 207.728928,99.239983 192.739761,114.150261 
	C188.326401,109.914055 183.574951,105.353340 178.128082,100.125099 
	C182.315155,96.193275 186.538467,92.227432 191.011826,88.011627 
z"/>
<path fill="#74D005" opacity="1.000000" stroke="none" 
	d="
M171.038788,100.970123 
	C166.336472,105.762978 161.660751,110.192711 157.282532,114.340599 
	C148.025970,105.145485 138.524033,95.706642 129.066483,86.311874 
	C133.451736,82.018677 138.065948,77.501312 142.638107,73.025124 
	C151.893585,82.005356 161.479477,91.306183 171.038788,100.970123 
z"/>
</svg>